<svg width="46" height="45" viewBox="0 0 46 45" fill="none" xmlns="http://www.w3.org/2000/svg">
<path d="M0.819386 22.489C0.819386 34.7698 11.0514 44.9781 23.4097 44.9781C35.7458 44.9781 46 34.7698 46 22.489C46 10.1862 35.7679 0 23.4319 0C11.0736 0 0.819386 10.1862 0.819386 22.489ZM26.7761 13.4273L34.4834 21.1441C34.9485 21.6071 35.1257 21.9599 35.1257 22.467C35.1257 22.9741 34.9042 23.371 34.4834 23.7898L26.7761 31.4846C26.4661 31.7932 26.0674 31.9698 25.5802 31.9698C24.6278 31.9698 23.9191 31.2421 23.9191 30.2941C23.9191 29.8089 24.1184 29.3901 24.4285 29.0815L27.2634 26.2812L30.0318 23.9883L25.1815 24.1646H13.3327C12.3139 24.1646 11.6052 23.4591 11.6052 22.467C11.6052 21.4528 12.3359 20.7472 13.3327 20.7472H25.1815L30.0096 20.9456L27.2634 18.6527L24.4285 15.8525C24.1406 15.5218 23.9191 15.1029 23.9191 14.6179C23.9191 13.6698 24.6278 12.9643 25.5802 12.9643C26.0674 12.9643 26.4661 13.1186 26.7761 13.4273Z" fill="white" fill-opacity="0.85"/>
</svg>
